<?xml version="1.0" standalone="no"?><!DOCTYPE svg PUBLIC "-//W3C//DTD SVG 1.1//EN" "http://www.w3.org/Graphics/SVG/1.1/DTD/svg11.dtd"><svg t="1607429722672" class="icon" viewBox="0 0 1024 1024" version="1.1" xmlns="http://www.w3.org/2000/svg" p-id="12935" xmlns:xlink="http://www.w3.org/1999/xlink" width="128" height="128"><defs><style type="text/css"></style></defs><path d="M887.5 0h-751C61.1 0 0 61.1 0 136.5v750.9C0 962.9 61.1 1024 136.5 1024h750.9c75.4 0 136.5-61.1 136.5-136.5v-751C1024 61.1 962.9 0 887.5 0zM704.9 748.8c-53.6 46.2-120.6 71.1-190.6 71.1-7.3 0-14.6-0.3-22-0.8-88.8-6.5-169.3-53.8-219.2-126v52.7c0 18.9-15.3 34.1-34.1 34.1s-34.1-15.3-34.1-34.1V575.1h170.7c18.9 0 34.1 15.3 34.1 34.1 0 18.9-15.3 34.1-34.1 34.1h-53.1c37.3 61.4 102.4 102.2 174.9 107.6 59.7 4.3 117.7-14.7 163-53.9 45.4-39.1 72.8-93.6 77.2-153.3 1.4-18.8 18-33.2 36.5-31.5 18.8 1.4 32.9 17.7 31.5 36.5-5.8 78-41.6 149.1-100.7 200.1z m114.3-302.6H648.6c-18.9 0-34.1-15.3-34.1-34.1s15.3-34.1 34.1-34.1H703c-21.9-35.7-52.5-64.6-90.5-83.4-17.7-8.1-37.3-14.1-57.4-17.5-60.5-10.2-121.4 3.9-171.4 39.5-50 35.7-83.1 88.6-93.2 149.2-2.8 16.7-17.3 28.5-33.6 28.5-1.9 0-3.8-0.1-5.7-0.5-18.6-3.1-31.1-20.7-28-39.3C236.3 376 279.3 307.2 344.1 261s143.8-64.5 222.3-51.3c26.1 4.4 51.5 12.2 75.5 23.3 44.5 22 81.2 54 109 93.3v-50.7c0-18.9 15.3-34.1 34.1-34.1 18.9 0 34.1 15.3 34.1 34.1v170.6z" p-id="12936" fill="#ea9518"></path></svg>