<?xml version="1.0" standalone="no"?><!DOCTYPE svg PUBLIC "-//W3C//DTD SVG 1.1//EN" "http://www.w3.org/Graphics/SVG/1.1/DTD/svg11.dtd"><svg t="1607423798195" class="icon" viewBox="0 0 1024 1024" version="1.1" xmlns="http://www.w3.org/2000/svg" p-id="9389" xmlns:xlink="http://www.w3.org/1999/xlink" width="128" height="128"><defs><style type="text/css"></style></defs><path d="M65.312 923.36V161.12c-0.96 0.96 0-39.84 0-60.48 0.48-38.4 31.68-69.12 70.08-68.64 17.28 0.48 34.08 7.2 46.56 18.72h0.48l600 411.36c8.64 8.16 14.4 18.24 18.24 29.28V119.84c0-42.24 34.56-76.8 76.8-76.8 42.24 0 76.8 34.56 76.8 76.8V886.4c0 42.24-34.56 76.8-76.8 76.8-42.24 0-76.8-34.56-76.8-76.8V532.16a67.2 67.2 0 0 1-18.24 29.28L182.432 972.8a69.12 69.12 0 0 1-97.92-2.4c-12.48-12.48-19.2-29.28-19.2-47.04z" p-id="9390" fill="#ea9518"></path></svg>