<?xml version="1.0" standalone="no"?><!DOCTYPE svg PUBLIC "-//W3C//DTD SVG 1.1//EN" "http://www.w3.org/Graphics/SVG/1.1/DTD/svg11.dtd"><svg t="1607425253306" class="icon" viewBox="0 0 1024 1024" version="1.1" xmlns="http://www.w3.org/2000/svg" p-id="12137" xmlns:xlink="http://www.w3.org/1999/xlink" width="128" height="128"><defs><style type="text/css"></style></defs><path d="M512 0c282.77 0 512 229.23 512 512s-229.23 512-512 512S0 794.77 0 512 229.23 0 512 0z m102.4 316.952c-23.406 0-43.91 20.432-43.91 43.813v321.292c0 23.357 20.48 43.788 43.886 43.788 23.405 0 43.91-20.43 43.91-43.788V360.765c0-23.381-20.48-43.813-43.886-43.813z m-204.8 0c-23.406 0-43.886 20.432-43.886 43.813v321.292c0 23.357 20.48 43.788 43.886 43.788 23.406 0 43.91-20.43 43.91-43.788V360.765c-0.024-23.381-20.504-43.813-43.886-43.813z" p-id="12138" fill="#ea9518"></path></svg>